<?xml version="1.0" encoding="utf-8"?>
<!-- Generator: Adobe Illustrator 21.0.0, SVG Export Plug-In . SVG Version: 6.00 Build 0)  -->
<svg version="1.1" id="Layer_1" xmlns="http://www.w3.org/2000/svg" xmlns:xlink="http://www.w3.org/1999/xlink" x="0px" y="0px"
	 viewBox="0 0 100 100" style="enable-background:new 0 0 100 100;" xml:space="preserve">
<style type="text/css">
	.st0{fill:#0084FF;}
	.st1{fill:#EC1C24;}
</style>
<g>
	<path class="st0" d="M89,29.3c-3.1,0-5.8,1.7-7.3,4.1l-10.1,16l-0.5-13c-0.1-5.3-4.1-7.2-7.6-7.2c-3,0-5.4,1.5-6.8,4L33,70.7h10.5
		l19.6-30.2c0,0,0.6,25.8,0.6,26.8c0,2.1,1.8,3.2,3.5,3.2h0.1c1.3,0,2.6-0.8,3.1-1.9l0,0l17.8-28.1v30.2h9.2V38.1
		C97.4,32.4,93.5,29.3,89,29.3z"/>
	<polygon class="st1" points="40,47.2 40,29.3 49.6,29.3 	"/>
	<path class="st0" d="M19.6,29.3L4.8,52.8c0,0-3.7,4.7-1.8,8.3c1.8,3.5,6.9,3.2,6.9,3.2h13.6v6.2h9.5V29.3H19.6z M23.5,56.2H11.4
		l11.9-18.6L23.5,56.2L23.5,56.2z"/>
</g>
</svg>
