<?xml version="1.0" encoding="UTF-8"?>
<!DOCTYPE svg PUBLIC "-//W3C//DTD SVG 1.1//EN" "http://www.w3.org/Graphics/SVG/1.1/DTD/svg11.dtd">
<!-- Creator: CorelDRAW 2020 (64-Bit) -->
<svg xmlns="http://www.w3.org/2000/svg" xml:space="preserve" width="46px" height="46px" version="1.1" style="shape-rendering:geometricPrecision; text-rendering:geometricPrecision; image-rendering:optimizeQuality; fill-rule:evenodd; clip-rule:evenodd"
viewBox="0 0 46 46"
 xmlns:xlink="http://www.w3.org/1999/xlink"
 xmlns:xodm="http://www.corel.com/coreldraw/odm/2003">
 <defs>
  <style type="text/css">
   <![CDATA[
    .fil0 {fill:white}
   ]]>
  </style>
 </defs>
 <g id="Layer_x0020_1">
  <metadata id="CorelCorpID_0Corel-Layer"/>
  <path class="fil0" d="M23.73 26.16l-2.63 -2.59 0.15 -0.14c1.7,-1.9 2.98,-4.15 3.73,-6.58l0.04 -0.12 2.93 0 0 -1.7 -7.11 0 0 -2.03 -1.7 0 0 2.03 -7.12 0 0 1.7 11.43 0 -0.08 0.22c-0.71,2.03 -1.82,3.9 -3.26,5.5l-0.12 0.14 -0.13 -0.14c-0.91,-1.01 -1.69,-2.14 -2.33,-3.35l-1.67 0c0.75,1.59 1.73,3.05 2.9,4.36l0.11 0.12 -5.17 5.1 1.2 1.2 5.09 -5.08 3.09 3.09 0.65 -1.73zm5.8 -5.03l-1.8 0 -4.45 11.87 1.67 0 1.14 -3.05 5.07 0 1.15 3.05 1.67 0 -4.45 -11.87zm-2.79 7.12l1.89 -5.05 1.89 5.05 -3.78 0z"/>
 </g>
</svg>
